<mxfile host="65bd71144e">
    <diagram id="HIP3nbAZw_EuaXWnEj3U" name="Page-1">
        <mxGraphModel dx="1086" dy="658" grid="1" gridSize="10" guides="1" tooltips="1" connect="1" arrows="1" fold="1" page="1" pageScale="1" pageWidth="850" pageHeight="1100" math="0" shadow="0">
            <root>
                <mxCell id="0"/>
                <mxCell id="1" parent="0"/>
                <mxCell id="8" value="http://ics2o.mths.ca" style="swimlane;whiteSpace=wrap;html=1;" vertex="1" parent="1">
                    <mxGeometry x="40" y="40" width="760" height="510" as="geometry"/>
                </mxCell>
                <mxCell id="9" value="&lt;h1 style=&quot;margin-top: 0px; line-height: 270%;&quot;&gt;&lt;font style=&quot;font-size: 30px;&quot;&gt;Cookie Clicker PWA&lt;/font&gt;&lt;/h1&gt;" style="text;html=1;whiteSpace=wrap;overflow=hidden;rounded=0;" vertex="1" parent="8">
                    <mxGeometry x="20" y="20" width="620" height="70" as="geometry"/>
                </mxCell>
                <mxCell id="11" value="&lt;div&gt;&lt;span style=&quot;font-size: 26px;&quot;&gt;Click The cookie&lt;/span&gt;&lt;/div&gt;" style="text;html=1;align=left;verticalAlign=middle;whiteSpace=wrap;rounded=0;" vertex="1" parent="8">
                    <mxGeometry x="270" y="90" width="260" height="47.5" as="geometry"/>
                </mxCell>
                <mxCell id="13" value="" style="shape=image;verticalLabelPosition=bottom;labelBackgroundColor=default;verticalAlign=top;aspect=fixed;imageAspect=0;image=data:image/jpeg,/9j/4AAQSkZJRgABAQAAAQABAAD/2wCEAAkGBxANEBIPDxESDw8NFRgODw8PExoNDw8PFRMWFhUVFRYYHSggGBolGxUVITIhJSorMC4uFx8zODUuNyktLysBCgoKDg0OGxAQGy8mICU4LS0vListLS0tLS0tLS0tLS0tLS0tLS0tLS0tKy0tLS0tLS0tLS0tLS0tLS0tLS0tLf/AABEIAOEA4QMBIgACEQEDEQH/xAAbAAACAgMBAAAAAAAAAAAAAAAAAgEDBQYHBP/EAEUQAAECBAIFCgUCBQIDCQAAAAEAAgMRITEEQQUSIlFhBhMycYGRobHB8EJSYrLRB8IUM3KC4SMkNEOiFRc2U1Vjk5Sz/8QAGgEBAAMBAQEAAAAAAAAAAAAAAAMEBQIBBv/EACURAQACAgMBAAEDBQAAAAAAAAABAgMRBBIxIUEyM0ITFCJRYf/aAAwDAQACEQMRAD8A7cb290UZWz9UGU8/FGWd+O9BGbqZD1TbqJKTN7DfxTUpfxQQ+1sx9wTZ291SPlLO43/ME1J5+PFADKihudM/VSMr+O5K3O9+O9A+dvdUp+Gmf7SmpPPxSGWze/H5SgY50U52UGVb+Kmk8/FAsPotp7kpOdPcksOzb+O5MZVv47kB8Vsj5hAyooMtbOx37wppS/igiL0XUyPkmzt7oki9F17HfuT0nn48EEdmfqoF3U9yU043470ou6/juQPmKe6JX2t8Q+4KaUv48Er7Z9Ib/mCB99EDKiilb+KBlfxQQ2xp8R+5NnZIyUjfpcfmT0nn4oFPw09yU9maU/Dfx3Jqcb8UDdiETHHxUIIk6dx3H8qJOlcX3Hf1ppVsolS2fqgWTpmosMuvipk6lR3H8qJVNMh6ppWogV4dK4uMj8w4ppOncdx48UrxS2Y+4JpVt7qggB1KjuO7rStDq1F93HrTgWp7klaL0z9UDSdO47uvikIds1F930nirJVt7qkI6NM/2lBJDq1Hcfypk6dx3H8oIvRTKtkFcMOk2o7uHWmIdWo7ju61EMUbT3JMRenuSBZO1rixyO8cVIDqVHcfyiW1bI+YUgWogSKHarqixyO7rTydO47jw4pYo2XUyPknIrb3RAsnbxfcd/WlAdN1R3cOtPLhn6pQKup7kgaTpio7jw4pHh0rjpDL6hxTyqKe6JXilviH3BA0nVqO4/lQA6lR3H8qZXogC1ECNDpXHS3Hf1p5Oncd3+UrBQ0+I/cnlWyCsh2zUd3DrTSdvF9x/Kgjo09yTS4ZoJk7eO4/lQmlwQgTXbO6jXEr5+qsrP3wUVl2+qCsPEzXIeqnXFKqazd1D1TVogre8SvmPuCbXE7+6ofOXaPuCas/fFAge2lUrXitc/VWidPeSVs69fqgNds7pC8bNc/2lXVmtU5X8tYGjNWEAcTjH1h4SFV5m0gF5rqN7CdwK8mdevYiZ+Q2cvFarGx+UmAhu1X43DMcKFro7GuB4glcwxkLH6VOtpLEOhwnVGBwrubhAbojh0/HgQnhcmsEwaow0KQptN1z3umVTvzaVnUfVmvFtPrq+CxsGM1phRWRRvhuEQW3hXl7a19yXG38k8Hra8Nj8PEyiYeI6E8dVSPBeiFhdIQRqwNLYtrchHDcWe969rzcc+k8W0eOtl41r5HzCnXFKrk2tpj/ANYif/Vgp2YrTTLaVD5ZPwcKXgu/7vF/tz/bXdUiPEnVyPknLxO/ui5e3lFp2Fd2AxTDcOY+BFPUQdULJ4T9TRDIbpLBxsFOnPs/3eFBnm9lR1SKkrnx28lxbDevsN81xvz9UoeJur7kq8BjoWJhtiwIjI0J/RiQyHtNd4N+CvE5u95KVENcb/dEj3iV/iH3BW1p73JXzl/cPuCCNcVqgPFKp61QJ0QVMeJGvxH7k+uJ3Qycj/UfuT1mgpLxs19yTa7d+akz2feSavigjXbvKhWVQgUitvJRKls+G9RKvTPh+FEvqN+G/qQEqmmQ3cU0rU8kkqnaNhu48FMrbR8PwgHilsxu+YJpVt5cUjxTpG43fN1JpV6Z8OPBBIFqeW5Vuc1rXOdJrWkkudIAAXJOS1Xldy1h6Pc3DQWvxeOeJsw0OQDARR0V2rsjhfqFVpOMwOM0mdbSmJLoZOsMFh/9LDtP1EVefEGxUOXPTH6lx4bX8Z3lJy+diXOwmhgIj+jFx5E8PAH/ALZs9241G7WrLEaG0LDws3kmNiIlY2IibUSI43qagcO+a9+Gw7ILQyG1rGNs1o1QFGKxUOC3WivbDbveQ0T3VWXm5Nss6jxfx4a0hcheDA6Zw2IdqQozXvFdUTBI4AivYveq0xMepomJ8CEIXgEIXLeUmnouKivAe5sFji1jGnVBAMtZ0rk3rZSYsU3n44veKw6koInQ1BoQagjiubcjdLRYeJhwi9zoUY6hY46wBI2S2djOVt66UmTHOOdFLxaGHbgI2AiHFaLcIUSc4uEP/C4obi2zHbiJdkyui8kuUsHSsF0WG0siQzzeIgPpEgRQKtPChkc5ZEEDUlh8c6Lo+ONJ4QEuYNXGQW0GJw1Jn+poEweHCRt8XlTE9bIM+CJjcOxStTy4JXilviG75gvJonSELGQYeIgRS+FGbrsdIA8QRKhBmCMiF6XinSNxu+YcFqs9ZK9PJAFqeSWV9o+H4QBbaPh+EAwUNPiO75k8q28lUwUO0b8Pm6k8q9I+H4QQR0aeW5NLhnwVZHR2j4bupNL6jfh+EFkvp8lCiX1nw/ChA5nNRWXb6pZ16J8Pyo1vpN+G/rQTWZ6h6pq0Vc6nZNhu48VM7bJ8Pygl85do+4LCctuUA0XgouJo6IAIcBh+OO+YYJZgVJ4NKzDzTom43fN1rm/6pRufx2jcHLZDn4yI3+gSZPhSIO1cZLdazLule1ohiuTujHQGGLGJiYvEnncTFdV5e6urPcPPsWXQhYFrTady1oiIjUBcg03pF+LjPivMxMiG3JkOdAPXiuvrmHKHk5Gw8Zxhw3xILyXQ3Q2l+qCZ6rgKgi3FWOLNYmdos8Tr4xmiIhZiIDm9IRWSlxcAR2gkdq7EtA5I8mopitxEdhhw4R12NeNV73jo7JqADWu4Lf15ybRNo0YazEfQhCFWTBck5RaOdhcQ9hGy4l8M5OhkzEuq3YutqjF4OFHbqxYbYjbye0OAO8TsVLhy/wBOXGSnaHL+SjZ43Dj6ye5jj6Lq6xWC5O4TDxOdhwgHieqS5z9WdKAmQWVXubJF53DzHSax9CEIUKRi9F6Sicn4zojGuiaLju1sRAbtOwcQyBiwx8lpj8CfVsLi2YiEyNBe2JCi6r2PYZtc0uFQueEA0NQaEGoINwVjuT+kToPFNhEn/svHRANU1GCxJMwRuY7Pvy2tTi8nf+FlLkYP5VddrVAnRJP6T4flANtk+H5WgpJZOR/qP3J6zVLDQ7Jud3zdacGvRPh+UAZ7PvJNXxVRPR2T4butNP6Tfh+UFteCFXP6T4flCBp1v5JZ0vnw3p6zyS1l2+qBZ1Nchu4pp2r5KKzd1D1TVogR5pfMbvmC5BExo0npbE45h1sPhmDAYd+UTVOs5w4TLux4Ww/qbp6KSzROEOrHxjecxEUf8jCaxB7XSI6hvIKxmj8EzDQmQYQkyGJDeTmTxJqqHNzRFekflc4uP72l6UIQspeCEIQCEIQCFjuUGPOFw0WM0TcwANnUBznBoJ4AmfYuZQNNYmHE50RohfOZ1nFzXcC20uHcpseGbxuEd8kVnTryF49EY9uKgsjNpzgq2+q4GTh2EFexRTGp0kidhCELwefG42Fh268Z7YbbAuMpncBcnqSaP0nAxQJgRGxNXpATDmztMGoXMOUWknYvEPeTsNJZCGTYYMhLrlM9ayPICLq4zVnLnIbmy3kFrv2lWp4+qbn1BGbdtOkrx6XwDcXAiQHSlFaWieTrtPYZL2IVaJ1O4TzG2yfpvpd2N0bBiRCeehA4aNOWtzkIlszxIDXf3LZgbV8lzr9L4xg4zSeEs0vh42HxMVpETxDF0YTovoMdu1YlkZK9bTBGGhr8R3fMnnW/klZOR/qP3J6zyXbhWT0a+W5MTxz4KDPZ95Ka160DT4+SFNeCEFeoJ595Uag433nerKzUVl2+qCvUEzewzPFTqCl+8qazPUPVMJ0Qcdw8X+J0ppLFTmGRRg4c66rYQ1XAcCWtPasusDyTFMWc3YyOT16wWeCweRO8ktfFGqQxuO09hcO/m4sZrX5tALy3+rVBl2r24eOyK0Phua9jrOadYFci0vCezERmxJ64iOLic5mYPUQQe1bF+neMc2M+BPYiMMQDIPaQJjrB8ApL8eIp2iUdcszbUugIQhVU4QhCDU/1EjvbAhsbRkR8onHVE2jvmf7Vz5dk0hgYeJhmFFbrMdlYgixByKwWH5EYRjtZxixAPge4BvbqtBPereHNWtdSgyY7WtuFnIKG5uDBdZ73PZP5aDzBWxJWMDQGtAa1okABIACwATKte3a0ymrGo0EIQuXrmfKHkzHw8RzocN0WC4lzDDBeWAmeq5oqJb7Lx6J0RjIkRpgQ4kNzDMRXAwmsO/WI8BPqXWEKzHJtrWkM4I3skEODWh5DngAOcBqhzpVIGVU6EKsmebku7U08AJyjYFwcAZVbFBB8F1EMFL95XMuRkLX07Fef+TgdVv8AfGaV1ATot3jftQy+R+uVTGCRvc5nenDBPPvKGTkf6v3J6zU6FTqDZv3ncm1BxvvKkz2feSavigjUHHvKhWVQgrnXoHw/Kif0G/Df1pze5UZXN/VAk6nZNhu48VM7bB8PypzNTYeqndUoOM6Ah8zidI4c0MLGRHgfREJLfBqzi8fLDD/wOmmx7QdLQ9Rxy/iYUmifW3UH9xXsWHyqdcktXBbtSGJ05yfgY6RfNkRok2KyjpbjOhC82gOS0PBRDFER0R5BYJgMa0G9BnRZ9Ci/qW69d/HfSu9hY/TGmIOCaHRiZvoxjRrPdK8hu4nesgsByr5PHHhjmPDIkLWADui8OlQkWqLpSKzb/Lx7bevijC8t8LEdquESED8T2gt7dUkhbJDeHAOaQ5rhMOBmCDYgriz2FpLTQtJaRuIMit3/AE4xby2NBJmyHqxGfSXF2sOoyB71YzYIrXtVDjyzM6luiEIVROF5sbj4OHAMaI2GHUbrmU98t69K53+okbWxLGT/AJcITG4uc4+Qb4KTFTvbTjJbrG2/4eOyK0Phua9hs5hDmntCtXMORekXQMUxk/8ATxB5t7ctY9B3XOQ6iV09e5cfSdFL9o2EIQonYQhCCnkc/V07EbKfOYDWlT4Y7RmunA22D4flcu5K/wDiAcMA+f8A87V1MZVK3eN+1DL5H65VsNDsnpHd83WnnXoHw/KhtjU9L9yfO5U6FUT0dk+G7rTT+g34flB+Gp9hN2m6An9B/wCn8qE/aUICs1FfH1SmGJ9HyUc2JdHPhvQTWbuoeqatFXzYmdnIbuKnmxTZ8kGqfqlon+L0ZGdaLg/93BcBtNdDmXS62aw7QtW0Ri/4iBCjG8Vgc7cHS2vGa6JyiY0YLEzbTmYs7W1HLlnIz/gIHU7/APRyzufEaiV3iT7DNoQhZi6EIQg53pHkbijGeYYY9j3FzXlwbIOM5OBrOuU1tnJrQgwMItJDosQ60RwoJizRwEz3lZhClvmtaNS4rjrWdwEIQonbC8r8XEgYR74RLXTa0vF2tc4Akbt0+K5dEeXEucS5xqXOOs4niTddnjQWxGljwHMeNVzTUEHJa2/kNhS6YdGa35A5pA4TLSfFWsGWtI1KHLjtafjU+SODdHxkKQ2YThGecgGGY73SHauqLx6M0ZBwjdSCwNBq49JzjxJqV7FFmyd7bh3jp1gLHaV03h8HIRnycahjRrvI3yFhxKv0niv4eDFjSnzTHPA3kCg71yDEx3xXuiRHFz3nWc43JXWHD3+z45yZOvjrmi9KwcW0vgu1g0ycCNVzTxBXtWkfpxhXjnoxmIbgIbdznAkmXVMDtK2vS+kWYSC+NEIkwUE5F7smjrXGSmr9auqW3XcvV+nzOe0xjowthYEPDA5TiO1yO9jl00TotO/TDQb8JgucxDf9zj3nGRp3br9BtbSbIyyLituEMU2fJbmKvWkQzMtu1plLJyP9R+5PWapZDEjs5ndvT82J9FSIwZ7PvJNXxVZhjZ2fclPNiuznwQWVQl5tvy+SEEzrfySzpfPhvUzdOw7z+FE3SsL7+PUggGprkN3FNO1fJLN0zQWGZ48FM3UoO8/hB5NMQedw0aEDWLDfDFruBaPNch5CxtfAwhYwy5jhm12uTI7qOC7Q8ulYXGf1DguTcrNBx9C4mLjoEMxdHYp3O4mEzadhYhM3PA+WczOwnIyABVXl4pvT5+FnjXitvrIoXm0fj4WJYIkF4e07rg7nC4PAr0rGmNetFXHjshNL4jmsY27nENaO0pcLiocZuvCe2I22sxwcJ7qLXP1Dhk4VhFmRWl3UWuAn2kd60jROk4uDiCJCMjZzT0Yjdzh65KfHg703Eor5ettOwIXh0NpNmMgiMwEAktc03a8XHG4rxXuUExMTqUsTsIQkjRWw2ue8hrWAuc42DQJkleB0LUW8vIPOaphPEKchEmC7rLN3bNbVBitiND2EOY8azXCoIOa7tS1fYc1tFvFiEIXDp59IYUR4USCTIRWlk7ymJTWuaP5DQIdY73RyPhH+izuBJPetrQu65LVjUS5mkTO5U/6cCH8MOFCbOmyxjAJ9yo5GaDOl4w0li2ywUB2rgcO+0VwdIxnjMTFsyNzdrxYvCO0tjYWi4ZIhCWIxz201YDSJMnkTMd7TkV12DAEGGyHDY1kOFqsYxpk1rWkAACVgAtDh4P52VOTl/jC+fHyQDavkibq0HefwoBdSg7z+FoqSGGhr8R+5MDW/kkaXSNB0t/1dSebp2HefwgUno18tyafHPgkJds0Hfw6k03bhfefwgefHyQom7cO8/hCAlWyiVLZ+qjnGz6Q7wo5xsukL7xvQTKppkPVTuok5xsztCwzHFTzjabQ7wgH2tmPuCYgGYlcflI+I2XSFxmPmCbnGz6Q7xxQc35W8gnQHHH6HHNRxtRsG3+TiGip1G5O+mxykb43Qel4eNh67Nl7dmLCd04b9x4UMj6zC6yIjabQ7wuc8ueSkRkU6U0ZI4gE/xWFBEsUzNzQPj3jO4r0qfJ40XjcerODPNZ1PijEwGRWOhxGhzHjVc02IWnx+QIL9iPKHOzmazwN0wQD3LZNC6ag41mtDMnt/mQnUiQznMbuKyKy4vfHOl+a1v9eXRmAh4WE2DDB1WZmrnONS48SvUhC4md/ZdRGgsDy4LhgomrOpYHS+TXE/GSzyqxMBsVjobxrMiAtcN4K9pOrRLy0bjTi66F+nUdzsPEYathRNjgHAEjvme1YjFcho4iShPhuhk0c8ljmj6gBXs8FuWhNFswUEQmHWPSe80L3m5llYCW4BW8+WlqahXxUtFtyyCEIVJZC8WmNJMwcF8d9mDZbYvf8AC0e7TXm0nyiwuFo6IHxLNhQv9SI5xsJCxPGSyHJXkvGx8dmO0m0QYMA6+EwLiC7XuIkYdxANbTAAkbODj2yT/wARZcsUhsH6Zcnn4PDHEYkf7zSB/iI8xJzGn+XD4SBJlkXEZLbn2t8Q+4KecbMbQ7xwSPiNl0h0hmPmC2ojUahlzO53KzfRAFqKOcbXaHeFAiNptDvC9eBooafEfuT52VTYjZHaF94+ZPzjZ9Id4QR8tPck3ZmqzEbs7Q7xuTc435hfeEFkuChRzjfnHeEIGrNRWXb6oMp5qMs7+qCKzPUPVNWiXM3sPVTuugh85doz+oJqz/z1pH2zuPuCbPO35QSJ0/PBK2dev1UjK/sJW53v6oNW5Tfp/g9IxDHk/C4q/wDE4Z3Nvcd7xKTjS9DxWsRuROmsPLmMbh8W02GJYYLrTu0OJtm5dTpPP3NIfhvf9pUd8VL/AKoSVy2r5LkkbDacgfzNGtjgXdhozfBpJd4Lxt5VQWP5rFQ42Cin4cTDcyfUZW4kALtJzuqcXg4UdphxobYsNwqyK0RGnsdRV7cLHPnxLXlXj1zbD4hkVutDe2I0/ExweO8K1ZPG/pfo2KREgtjYKI4VfhIhh5ZNdMAcAAvGf0ye3+XpXGiXzyifhVrcC34lPHLr+VCV7w0FziGtFS4mQA4kq3/u7xwOqNLvleuFaT3669OE/S7DucH47E4nHyM+be7mYExnqtr/ANS8jgX39l7PKp+Grs0vHxz3QdFQDintpExDtjCwetxlPfLPKa2HB/pjEjSdpLHRo5NTAw3+3gD6TQl3XJq3zD4OFh4XNQYbYUNjSGQ4bQxjRLIBeo3z9yV7FxqU/CrfPazCaC5J4HR0jhcNDhvtzpnEjET/APMfN3isyJzd7yR339VAu6/sKwgmdnrMfnqSvnL+4Z/UFOYv7klfbPpD7ggetUCdPyo33QMroIZOR/qP3J6zy71Wyxv0j9yfPNApns+8k1fFIfhv7CbvugevBCinFCBNV0+kO7/KjVd8wvu4pyK2US4Z+qBA10ztZDLrTarqbQ7lAFTTIeqaVqIEe10ukLjL6k2q6fS8OtQ8UtmPuCeVbe6oFDXU2vBK0OrtZ7uPWnAtT3JK0Xpn6oJ1XT6Q7uvilLXbO0L7vpPFWSrb3VIR0aZ/tKCS11drw/yp1XT6Xggi9FMq2QVw2uk3a8OCYtdXaHdwUQxRtPck0r09yQLqu1ulkcuIUhrqbQ7kEbVsj5hSBaiBIgdqu2sjlwTFrp9Lw6lEQbLqZHyTyrb3RAuq75s93FKGum7a8OCeXDP1SgVdT3JBOq6Y2vDqSva6XS+IZfUE8rU90SvFLfEPuCCdV1dodyA11NodymV6IAtRAjGukdrM5fUn1XT6Q7krBQ0+L9yeVbIKy12zXw4JtV3zC+7/ACoI6NPck0uGaA1XfMO7/KE0uChAuuJ3Ua4lfP1VhnNRWXb6oK9cTNch6qdcUqprN3UPVNWiCt7xK+Y+4JtcTv7qh85f3D7gnrPs/KCsPFK+5JWvFa5+qtE6e8krZ16/VAa4ndIXjZrn+0q6s/fFIZ7PX+0oILxWqnXE7pjOqms0FUN4k2vuSkvFa+5KYc5N95JjOvvJBXrjWvkfMKQ8UqmM9bsPmFInRBVEeNV1cj5Jy8Tv7oiLPVd1HyTmc/fBBXrjfn6qA8TdX3JWV8fVKJzd7yQGuJivuiR7xK/xD7gra097kr5y/uH3BAa4rVQHilU9aoE6IKmvEjXM/cn1xO6GTkf6v3J6zQUl42a+5Jtcb81Ndn3kmr4oI1xvQnqhB5kZdvqhCCMz1D1U7kIQK63aPuTe/NCEEbveSG2PX6qEIGSn4ev9pUIQOc0IQgVlm+8lJz95IQgPi7PUKQhCBYlndR8k5uhCBcve9Au73koQgb35JX27R9wUIQPvQMkIQQ2x6z5qc+5CEC/L7yTKEIGQhCD/2Q==;" vertex="1" parent="8">
                    <mxGeometry x="267.5" y="137.5" width="225" height="225" as="geometry"/>
                </mxCell>
                <mxCell id="14" value="&lt;div&gt;&lt;span style=&quot;font-size: 26px;&quot;&gt;Amount of Cookies: 15&lt;/span&gt;&lt;/div&gt;" style="text;html=1;align=left;verticalAlign=middle;whiteSpace=wrap;rounded=0;" vertex="1" parent="8">
                    <mxGeometry x="240" y="362.5" width="260" height="47.5" as="geometry"/>
                </mxCell>
            </root>
        </mxGraphModel>
    </diagram>
</mxfile>